<?xml version="1.0" encoding="UTF-8"?>
<svg width="322px" height="322px" viewBox="0 0 322 322" xmlns="http://www.w3.org/2000/svg" xmlns:xlink="http://www.w3.org/1999/xlink" version="1.1">
 <!-- Generated by Pixelmator Pro 2.3 -->
 <g id="SvgjsG4820">
  <path id="Path" d="M322 160.842 C322 182.055 309.969 200.736 302.37 219.416 294.771 238.096 289.388 260.26 274.824 274.824 260.26 289.388 238.73 294.454 219.416 302.37 200.102 310.285 182.055 322 160.842 322 139.628 322 120.948 309.969 102.267 302.37 83.587 294.771 61.424 289.388 46.859 274.824 32.295 260.26 27.546 238.73 19.63 219.416 11.715 200.102 -0 182.055 -0 160.842 -0 139.628 12.031 120.948 19.63 102.584 27.229 84.22 32.612 61.74 47.176 47.176 61.74 32.612 83.27 27.546 102.584 19.63 121.898 11.715 139.628 0 160.842 0 182.055 0 201.052 12.031 219.416 19.63 237.78 27.229 260.26 32.612 274.824 47.176 289.388 61.74 294.454 83.27 302.37 102.584 310.285 121.898 322 139.628 322 160.842 Z" fill="#ffffff" fill-opacity="1" stroke="none"/>
 </g>
 <g id="Bus">
  <path id="Path-1" d="M120.597 147.264 C120.593 147.264 120.586 147.264 120.581 147.264 116.073 147.252 112.428 143.601 112.425 139.093 112.425 139.058 112.425 139.029 112.425 139.003 112.47 134.526 116.11 130.914 120.596 130.912 125.108 130.914 128.765 134.571 128.767 139.084 L128.767 139.112 C128.756 143.617 125.104 147.264 120.597 147.264 Z M120.587 141.902 L120.599 141.902 C122.144 141.902 123.403 140.646 123.406 139.106 123.406 139.096 123.406 139.09 123.406 139.083 123.405 137.534 122.147 136.277 120.599 136.276 119.05 136.277 117.795 137.533 117.793 139.083 L117.793 139.15 117.793 139.154 C117.822 140.674 119.065 141.899 120.587 141.902 Z" fill="#eb671a" fill-opacity="1" stroke="none"/>
  <path id="Path-2" d="M193.368 147.264 C193.361 147.264 193.357 147.264 193.351 147.264 188.843 147.255 185.198 143.601 185.196 139.093 185.196 139.092 185.196 139.089 185.196 139.084 185.198 134.569 188.854 130.914 193.37 130.912 197.882 130.914 201.536 134.568 201.54 139.082 L201.54 139.084 201.54 139.112 C201.527 143.62 197.873 147.264 193.368 147.264 Z M193.357 141.899 L193.368 141.899 C194.913 141.902 196.174 140.646 196.175 139.106 196.175 139.096 196.175 139.09 196.175 139.083 196.174 137.534 194.918 136.277 193.37 136.273 191.821 136.277 190.564 137.533 190.561 139.083 L190.561 139.163 C190.597 140.678 191.837 141.897 193.357 141.899 Z" fill="#eb671a" fill-opacity="1" stroke="none"/>
  <path id="Path-3" d="M225.426 99.002 L197.538 99.046 179.772 99.089 161.993 99.121 144.216 99.165 126.448 99.198 92.884 99.069 C91.741 99.152 90.825 99.888 90.774 100.954 L89.918 120.243 88 121.719 88 131.153 88.033 138.394 C87.999 140.316 89.449 141.341 90.893 141.381 L111.658 141.381 C111.473 140.65 111.372 139.886 111.372 139.096 111.372 139.054 111.372 139.019 111.374 138.996 111.423 133.94 115.533 129.858 120.597 129.857 125.694 129.858 129.821 133.989 129.824 139.082 L129.824 139.115 C129.822 139.895 129.722 140.655 129.537 141.38 L160.174 141.38 184.445 141.442 C184.249 140.691 184.143 139.904 184.143 139.095 L184.143 139.08 C184.145 133.986 188.273 129.857 193.37 129.857 198.465 129.857 202.59 133.985 202.593 139.08 L202.593 139.114 C202.59 139.94 202.479 140.742 202.271 141.502 L232.826 135.43 233 105.633 C233.047 102.249 228.824 98.901 225.426 99.002 Z M105.929 134.337 C105.929 135.474 105.011 136.392 103.873 136.392 L98.742 136.392 C97.602 136.392 96.685 135.474 96.685 134.337 L96.685 108.44 C96.685 107.299 97.603 106.384 98.742 106.384 L103.872 106.384 C105.011 106.384 105.928 107.301 105.928 108.44 L105.928 134.337 Z M137.414 116.792 C137.414 117.932 136.498 118.848 135.358 118.848 L114.174 118.848 C113.036 118.848 112.119 117.932 112.119 116.792 L112.119 108.353 C112.119 107.214 113.036 106.297 114.174 106.297 L135.358 106.297 C136.498 106.297 137.414 107.215 137.414 108.353 Z M167.682 116.792 C167.682 117.932 166.764 118.848 165.624 118.848 L144.441 118.848 C143.301 118.848 142.385 117.932 142.385 116.792 L142.385 108.353 C142.385 107.214 143.301 106.297 144.441 106.297 L165.624 106.297 C166.764 106.297 167.682 107.215 167.682 108.353 Z M197.85 116.792 C197.85 117.932 196.934 118.848 195.794 118.848 L174.62 118.848 C173.483 118.848 172.564 117.932 172.564 116.792 L172.564 108.353 C172.564 107.214 173.483 106.297 174.62 106.297 L195.794 106.297 C196.934 106.297 197.85 107.215 197.85 108.353 Z M227.861 116.792 C227.861 117.932 226.941 118.848 225.803 118.848 L204.62 118.848 C203.481 118.848 202.563 117.932 202.563 116.792 L202.563 108.353 C202.563 107.214 203.481 106.297 204.62 106.297 L221.919 106.297 C225.4 106.297 227.862 108.448 227.862 110.636 L227.862 116.792 Z" fill="#eb671a" fill-opacity="1" stroke="none"/>
 </g>
 <g id="text">
  <g id="SvgjsG4822">
   <path id="Path-4" d="M66.487 161.597 L70.199 168.765 73.826 161.597 C73.954 161.384 73.996 161.384 74.167 161.384 L78.946 161.384 C79.202 161.384 79.372 161.64 79.287 161.853 L73.1 176.232 73.1 189.159 C73.1 189.373 72.93 189.543 72.716 189.543 L67.682 189.543 C67.554 189.543 67.383 189.373 67.383 189.159 L67.383 176.232 61.026 161.939 C60.941 161.64 61.069 161.384 61.367 161.384 L66.146 161.384 C66.316 161.384 66.359 161.384 66.487 161.597 Z M70.412 175.25 L75.746 164.157 C75.874 163.901 75.447 163.688 75.276 163.987 L70.199 174.61 64.994 163.987 C64.823 163.688 64.354 163.901 64.482 164.2 L69.943 175.25 69.943 187.026 C69.943 187.325 70.412 187.367 70.412 187.026 Z M90.423 161.64 C90.465 161.512 90.551 161.384 90.721 161.384 L96.012 161.384 C96.182 161.384 96.268 161.512 96.31 161.64 L103.692 189.074 C103.734 189.33 103.564 189.543 103.308 189.543 L98.444 189.543 C98.316 189.543 98.188 189.458 98.145 189.287 L96.481 183.314 90.252 183.314 88.631 189.287 C88.588 189.458 88.503 189.543 88.332 189.543 L83.425 189.543 C83.169 189.543 82.999 189.33 83.041 189.074 Z M91.617 178.024 L95.159 178.024 93.324 171.581 Z M98.188 180.541 L100.15 186.941 C100.236 187.197 100.705 187.154 100.577 186.813 L93.751 164.115 C93.623 163.56 92.897 163.517 92.769 164.115 L86.156 186.813 C86.028 187.111 86.497 187.239 86.625 186.983 L88.503 180.541 Z M88.631 179.986 L93.281 164.285 98.017 179.986 Z M114.87 161.384 C115.083 161.384 115.254 161.555 115.254 161.768 L115.254 184.167 124.47 184.167 C124.683 184.167 124.854 184.338 124.854 184.551 L124.854 189.159 C124.854 189.373 124.683 189.543 124.47 189.543 L110.006 189.543 C109.793 189.543 109.665 189.373 109.665 189.159 L109.665 161.768 C109.665 161.555 109.793 161.384 110.006 161.384 Z M112.225 163.987 L112.225 186.941 C112.225 187.026 112.31 187.154 112.481 187.154 L122.337 187.154 C122.678 187.154 122.678 186.599 122.337 186.599 L112.694 186.599 112.694 163.987 C112.694 163.688 112.225 163.645 112.225 163.987 Z M136.032 161.384 C136.246 161.384 136.416 161.555 136.416 161.768 L136.416 184.167 145.632 184.167 C145.845 184.167 146.016 184.338 146.016 184.551 L146.016 189.159 C146.016 189.373 145.845 189.543 145.632 189.543 L131.168 189.543 C130.955 189.543 130.827 189.373 130.827 189.159 L130.827 161.768 C130.827 161.555 130.955 161.384 131.168 161.384 Z M133.387 163.987 L133.387 186.941 C133.387 187.026 133.472 187.154 133.643 187.154 L143.499 187.154 C143.84 187.154 143.84 186.599 143.499 186.599 L133.856 186.599 133.856 163.987 C133.856 163.688 133.387 163.645 133.387 163.987 Z M157.322 161.64 C157.365 161.512 157.45 161.384 157.621 161.384 L162.912 161.384 C163.082 161.384 163.168 161.512 163.21 161.64 L170.591 189.074 C170.634 189.33 170.463 189.543 170.207 189.543 L165.344 189.543 C165.216 189.543 165.088 189.458 165.045 189.287 L163.381 183.314 157.152 183.314 155.53 189.287 C155.488 189.458 155.402 189.543 155.232 189.543 L150.325 189.543 C150.069 189.543 149.899 189.33 149.941 189.074 Z M158.517 178.024 L162.058 178.024 160.224 171.581 Z M165.088 180.541 L167.05 186.941 C167.136 187.197 167.605 187.154 167.477 186.813 L160.65 164.115 C160.522 163.56 159.797 163.517 159.669 164.115 L153.056 186.813 C152.928 187.111 153.397 187.239 153.525 186.983 L155.402 180.541 Z M155.53 179.986 L160.181 164.285 164.917 179.986 Z M208.607 168.68 C208.607 170.344 208.351 171.794 207.753 172.861 209.375 174.397 210.057 176.872 210.057 180.328 210.057 183.997 209.289 186.599 207.54 187.965 205.876 189.287 203.529 189.543 201.183 189.543 L192.863 189.543 C192.65 189.543 192.522 189.373 192.522 189.159 L192.522 161.768 C192.522 161.555 192.65 161.384 192.863 161.384 L199.689 161.384 C201.993 161.384 204.383 161.555 206.004 162.621 208.009 163.901 208.607 166.205 208.607 168.68 Z M198.153 166.973 L198.153 170.813 200.756 170.813 C202.121 170.813 202.847 170.386 202.847 168.893 202.847 167.4 201.737 166.973 199.86 166.973 Z M199.775 183.954 C202.121 183.954 204.34 182.93 204.34 180.2 204.34 178.152 202.889 176.53 200.713 176.53 L198.153 176.53 198.153 183.954 Z M194.996 164.072 L194.996 186.813 C194.996 187.026 195.167 187.111 195.338 187.111 L201.055 187.111 C205.193 187.111 207.668 185.021 207.668 180.541 207.668 177.341 206.943 174.013 203.615 173.074 205.577 172.434 206.089 170.472 206.089 168.381 206.089 164.968 204.169 163.731 200.713 163.731 L195.338 163.731 C195.082 163.731 194.996 163.859 194.996 164.072 Z M200.415 186.599 L195.551 186.599 195.551 173.458 201.567 173.458 C205.961 173.458 207.071 176.317 207.071 180.541 207.071 184.85 204.724 186.77 200.415 186.599 Z M205.577 168.381 C205.577 171.837 204.127 172.904 200.628 172.904 L195.551 172.904 195.551 164.285 200.713 164.285 C203.231 164.285 205.577 164.755 205.577 168.381 Z M230.622 179.688 L230.622 161.768 C230.622 161.555 230.793 161.384 231.006 161.384 L235.87 161.384 C236.083 161.384 236.254 161.555 236.254 161.768 L236.254 181.053 C236.254 187.197 232.883 189.97 226.526 189.97 220.51 189.97 216.756 187.581 216.756 181.053 L216.756 161.768 C216.756 161.555 216.926 161.384 217.14 161.384 L222.046 161.384 C222.26 161.384 222.43 161.555 222.43 161.768 L222.43 179.688 C222.43 183.399 224.521 184.21 226.27 184.21 L226.782 184.21 C229.427 184.21 230.622 182.418 230.622 179.688 Z M219.401 164.115 L219.401 180.712 C219.401 184.551 222.004 187.325 226.057 187.325 L227.123 187.325 C231.177 187.325 233.822 184.423 233.822 180.712 L233.822 164.115 C233.822 163.731 233.31 163.688 233.31 164.115 L233.31 180.712 C233.31 184.21 230.793 186.77 227.123 186.77 L226.057 186.77 C222.473 186.77 219.913 184.466 219.913 180.712 L219.913 164.115 C219.913 163.731 219.401 163.731 219.401 164.115 Z M253.534 172.264 C256.776 173.8 261 176.232 261 180.626 261 181.906 260.787 184.381 259.379 186.471 257.8 188.818 255.325 189.97 251.912 189.97 248.286 189.97 244.062 188.221 242.739 184.253 242.696 184.125 242.739 183.997 242.867 183.911 L246.792 180.541 C246.963 180.413 247.219 180.413 247.347 180.626 247.432 180.84 247.603 181.181 247.816 181.608 248.456 182.93 249.992 184.253 251.699 184.253 253.022 184.253 254.813 183.527 254.813 181.48 254.813 179.517 252.126 178.408 250.462 177.768 248.542 177 246.579 176.018 244.915 174.568 243.166 172.946 242.312 171.154 242.312 169.021 242.312 163.688 247.219 161 251.87 161 255.539 161 258.269 162.92 260.061 166.717 260.147 166.888 260.061 167.101 259.933 167.187 L256.136 169.832 C255.965 169.917 255.88 169.917 255.709 169.704 254.259 167.613 252.979 166.632 251.272 166.632 250.376 166.632 248.286 166.973 248.286 168.552 248.286 170.472 251.827 171.453 253.534 172.264 Z M245.768 184.039 C246.835 186.173 249.779 187.41 252.168 187.41 255.283 187.41 257.8 185.277 258.141 182.034 258.568 178.066 255.453 176.36 252.382 174.824 L251.016 174.226 C247.859 172.818 245.555 171.752 245.555 168.808 245.555 165.565 248.542 164.072 251.486 164.072 254.173 164.072 255.581 165.651 256.307 166.632 256.563 166.973 256.989 166.675 256.733 166.333 256.008 165.437 254.472 163.56 251.486 163.56 248.115 163.56 245.043 165.224 245.043 168.808 245.043 172.008 247.603 173.245 250.846 174.738 L252.168 175.378 C256.392 177.384 257.928 179.261 257.587 181.992 256.947 186.343 253.619 186.898 252.168 186.898 248.968 186.898 246.835 184.978 246.195 183.783 245.982 183.57 245.683 183.783 245.768 184.039 Z" fill="#eb671a" fill-opacity="1" stroke="none"/>
  </g>
  <g id="SvgjsG4823">
   <path id="Path-5" d="M95.159 223.514 L89.982 212.017 89.982 223.514 89 223.514 89 210.125 90.053 210.125 95.23 221.104 95.355 210.125 96.319 210.125 96.319 223.514 Z M99.71 223.514 L99.71 210.125 106.279 210.125 106.279 211.16 100.638 211.16 100.638 216.248 106.226 216.248 106.226 217.069 100.638 217.069 100.638 222.479 106.404 222.479 106.404 223.514 Z M113.115 223.514 L112.348 223.514 108.652 210.125 109.599 210.125 112.723 221.961 115.918 210.125 116.829 210.125 Z M119.451 223.514 L119.451 210.125 126.021 210.125 126.021 211.16 120.38 211.16 120.38 216.248 125.967 216.248 125.967 217.069 120.38 217.069 120.38 222.479 126.146 222.479 126.146 223.514 Z M135.588 223.514 L132.643 217.962 129.911 217.962 129.911 223.514 129.037 223.514 129.037 210.125 132.072 210.125 C132.774 210.125 133.375 210.229 133.875 210.437 134.374 210.646 134.785 210.928 135.106 211.285 135.428 211.642 135.666 212.056 135.82 212.526 135.975 212.996 136.053 213.487 136.053 213.999 136.053 214.868 135.829 215.65 135.383 216.346 134.937 217.043 134.351 217.551 133.625 217.873 L136.767 223.514 Z M131.947 210.946 L129.911 210.946 129.911 217.052 132.072 217.052 C132.678 217.052 133.178 216.959 133.571 216.775 133.964 216.59 134.27 216.352 134.49 216.061 134.711 215.769 134.865 215.436 134.955 215.061 135.044 214.686 135.089 214.302 135.089 213.91 135.089 213.493 135.017 213.106 134.874 212.749 134.731 212.392 134.526 212.08 134.258 211.812 133.991 211.544 133.663 211.333 133.277 211.178 132.89 211.023 132.446 210.946 131.947 210.946 Z M144.583 223.514 L144.583 210.125 145.547 210.125 145.547 222.55 150.099 222.55 150.099 223.514 Z M160.006 223.514 L159.024 219.569 154.668 219.569 153.686 223.514 152.794 223.514 156.489 210.125 157.257 210.125 160.934 223.514 Z M156.9 210.964 L154.882 218.712 158.792 218.712 Z M165.896 211.107 L165.896 223.514 164.86 223.514 164.86 211.107 161.95 211.107 161.95 210.125 168.806 210.125 168.806 211.107 Z M171.696 223.514 L171.696 210.125 178.266 210.125 178.266 211.16 172.625 211.16 172.625 216.248 178.212 216.248 178.212 217.069 172.625 217.069 172.625 222.479 178.391 222.479 178.391 223.514 Z M193.634 223.514 L192.652 219.569 188.296 219.569 187.314 223.514 186.421 223.514 190.117 210.125 190.884 210.125 194.562 223.514 Z M190.527 210.964 L188.51 218.712 192.42 218.712 Z M200.327 223.675 C199.196 223.675 198.351 223.377 197.792 222.782 197.233 222.187 196.953 221.306 196.953 220.14 L196.953 213.535 C196.953 212.345 197.233 211.458 197.792 210.875 198.351 210.292 199.256 210 200.505 210 201.684 210 202.546 210.295 203.094 210.884 203.641 211.473 203.915 212.345 203.915 213.499 L203.915 214.463 202.951 214.463 202.951 213.32 C202.951 213.023 202.915 212.722 202.844 212.419 202.773 212.115 202.645 211.839 202.46 211.589 202.276 211.339 202.023 211.137 201.701 210.982 201.38 210.827 200.97 210.75 200.47 210.75 199.97 210.75 199.556 210.818 199.229 210.955 198.902 211.092 198.64 211.285 198.443 211.535 198.247 211.785 198.107 212.08 198.024 212.419 197.941 212.758 197.899 213.13 197.899 213.535 L197.899 220.211 C197.899 220.628 197.941 221 198.024 221.327 198.107 221.654 198.247 221.931 198.443 222.157 198.64 222.383 198.896 222.556 199.211 222.675 199.527 222.794 199.91 222.853 200.363 222.853 200.862 222.853 201.279 222.791 201.612 222.666 201.945 222.541 202.213 222.365 202.416 222.139 202.618 221.913 202.764 221.64 202.853 221.318 202.942 220.997 202.987 220.646 202.987 220.265 L202.987 217.641 200.184 217.623 200.184 216.748 203.915 216.766 203.915 220.14 C203.915 221.318 203.641 222.202 203.094 222.791 202.546 223.38 201.624 223.675 200.327 223.675 Z M213.786 223.514 L212.804 219.569 208.448 219.569 207.466 223.514 206.574 223.514 210.269 210.125 211.037 210.125 214.714 223.514 Z M210.68 210.964 L208.662 218.712 212.572 218.712 Z M217.48 223.514 L217.48 210.125 218.622 210.125 218.622 223.514 Z M228.422 223.514 L223.245 212.017 223.245 223.514 222.263 223.514 222.263 210.125 223.316 210.125 228.493 221.104 228.618 210.125 229.582 210.125 229.582 223.514 Z M234.33 220.533 L233.276 220.533 233.151 210.125 234.455 210.125 Z M233.151 223.514 L233.151 222.461 234.455 222.461 234.455 223.514 Z" fill="#eb671a" fill-opacity="1" stroke="none"/>
  </g>
 </g>
</svg>
