<?xml version="1.0" encoding="UTF-8"?>
<!-- Generated by Pixelmator Pro 2.3.8 -->
<svg width="700" height="700" viewBox="0 0 700 700" xmlns="http://www.w3.org/2000/svg" xmlns:xlink="http://www.w3.org/1999/xlink">
    <g id="group">
        <path id="Path" fill="#f66667" stroke="none" d="M 350.002991 0.000977 C 270.856995 -0.406006 194.787994 30.637024 138.516998 86.312988 C 82.254997 141.989014 50.414001 217.72998 49.994999 296.869995 C 49.994999 506.614014 285.623993 700 349.996002 700 C 414.367004 700 649.995972 506.627991 649.995972 296.869995 C 649.578003 217.725006 617.736023 141.984009 561.474976 86.312988 C 505.213013 30.637024 429.141998 -0.406006 349.989014 0.000977 Z M 275.002991 50.000977 C 280.05899 50.000977 284.618011 53.047974 286.548004 57.718994 C 288.484985 62.390015 287.419006 67.763 283.84201 71.341003 C 280.265015 74.917969 274.890991 75.984009 270.220001 74.046997 C 265.549988 72.115967 262.502991 67.557007 262.502991 62.500977 C 262.502991 55.598022 268.100006 50.000977 275.002991 50.000977 Z M 112.501999 304.502014 C 112.501999 311.410004 106.904999 317.002014 100.001999 317.002014 C 93.098999 317.002014 87.501999 311.410004 87.501999 304.502014 C 87.458 255.774994 100.654999 207.945007 125.688004 166.132019 C 150.720993 124.322998 186.647995 90.104004 229.628006 67.130005 C 235.772003 63.921021 243.356003 66.297974 246.563995 72.442993 C 249.772003 78.586975 247.395004 86.169983 241.251007 89.377991 C 202.294006 110.187012 169.738007 141.197021 147.054001 179.093994 C 124.375 216.98999 112.433998 260.338989 112.5 304.502014 Z M 506.246002 268.755005 C 506.263 273.369995 504.09201 277.71701 500.39801 280.472992 C 496.697998 283.235992 491.915985 284.084015 487.496002 282.756012 L 487.496002 381.255005 C 487.506989 390.289001 485.057007 399.161987 480.408997 406.912994 C 475.765991 414.664001 469.097992 421.003998 461.122986 425.256012 L 461.122986 448.381989 C 460.860992 456.283997 456.492004 463.476013 449.593994 467.355011 C 442.701996 471.233002 434.286987 471.233002 427.395996 467.355011 C 420.503998 463.47699 416.134003 456.28299 415.872009 448.381989 L 415.872009 431.256012 L 284.118988 431.256012 L 284.118988 448.381989 C 283.856995 456.283997 279.487 463.476013 272.596008 467.355011 C 265.70401 471.233002 257.287994 471.233002 250.397003 467.355011 C 243.5 463.47699 239.130005 456.28299 238.867996 448.381989 L 238.867996 425.256012 C 230.893997 421.003998 224.225006 414.665009 219.582001 406.912994 C 214.934006 399.161987 212.483994 390.289001 212.494995 381.255005 L 212.494995 282.756012 C 208.074997 284.084015 203.292999 283.235992 199.593002 280.472992 C 195.899002 277.71701 193.727997 273.369995 193.744995 268.755005 L 193.744995 231.255005 C 193.716995 226.588989 195.927002 222.192017 199.682007 219.424011 C 203.444 216.651001 208.292999 215.846985 212.746002 217.253998 C 214.041 197.34198 222.863007 178.671021 237.417999 165.026001 C 251.972 151.377014 271.167999 143.770996 291.122986 143.752991 L 408.875 143.752991 L 408.869995 143.752991 C 428.825012 143.77002 448.020996 151.375977 462.575012 165.026001 C 477.130005 178.669983 485.950989 197.34198 487.247009 217.253998 C 491.700012 215.846985 496.549011 216.651001 500.309998 219.424011 C 504.06601 222.192017 506.276001 226.588989 506.247986 231.255005 Z"/>
        <path id="Path-1" fill="#f66667" stroke="none" d="M 275.002991 362.502014 C 268.372986 362.502014 262.011993 365.135986 257.324005 369.824005 C 252.636993 374.510986 250.003006 380.872986 250.003006 387.502014 C 250.003006 394.131989 252.636993 400.493011 257.324005 405.181 C 262.011993 409.868011 268.372986 412.502014 275.002991 412.502014 C 281.631989 412.502014 287.993988 409.868011 292.681 405.181 C 297.368988 400.493011 300.002991 394.131989 300.002991 387.502014 C 300.002991 380.872986 297.368988 374.510986 292.681 369.824005 C 287.993988 365.135986 281.631989 362.502014 275.002991 362.502014 Z"/>
        <path id="Path-2" fill="#f66667" stroke="none" d="M 425.002991 362.502014 C 418.373993 362.502014 412.011993 365.135986 407.324005 369.824005 C 402.636993 374.510986 400.002991 380.872986 400.002991 387.502014 C 400.002991 394.131989 402.636993 400.493011 407.324005 405.181 C 412.011993 409.868011 418.373993 412.502014 425.002991 412.502014 C 431.631989 412.502014 437.993988 409.868011 442.682007 405.181 C 447.368988 400.493011 450.002991 394.131989 450.002991 387.502014 C 449.980988 380.877991 447.341003 374.528015 442.658997 369.846008 C 437.97699 365.165009 431.627014 362.524994 425.003998 362.502991 Z"/>
        <path id="Path-3" fill="#f66667" stroke="none" d="M 443.746002 206.259003 L 256.244995 206.259003 C 249.343002 206.259003 243.744995 211.856018 243.744995 218.759003 L 243.744995 331.259003 C 243.744995 334.574005 245.061996 337.755005 247.406006 340.097992 C 249.75 342.441986 252.931 343.759003 256.244995 343.759003 L 443.746002 343.759003 C 447.061005 343.759003 450.242004 342.441986 452.584991 340.097992 C 454.928986 337.755005 456.246002 334.574005 456.246002 331.259003 L 456.246002 218.759003 C 456.246002 215.444 454.928986 212.263 452.584991 209.919983 C 450.240997 207.575989 447.061005 206.259003 443.746002 206.259003 Z"/>
        <path id="Path-4" fill="#f66667" stroke="none" d="M 381.26001 163.002014 L 318.76001 163.002014 C 311.856995 163.002014 306.26001 168.593018 306.26001 175.502014 C 306.26001 182.403992 311.856995 188.002014 318.76001 188.002014 L 381.26001 188.002014 C 388.162994 188.002014 393.76001 182.403992 393.76001 175.502014 C 393.76001 168.593018 388.162994 163.002014 381.26001 163.002014 Z"/>
    </g>
</svg>
