<?xml version="1.0" encoding="UTF-8"?>
<svg width="700px" height="700px" viewBox="0 0 700 700" xmlns="http://www.w3.org/2000/svg" xmlns:xlink="http://www.w3.org/1999/xlink" version="1.1">
 <!-- Generated by Pixelmator Pro 2.3 -->
 <g id="group">
  <path id="Path" d="M444.159 493.742 C434.816 494.519 426.25 489.847 417.684 485.176 339.03 439.232 272.062 373.821 225.338 295.945 216.772 282.707 208.982 267.134 212.101 251.555 217.554 221.962 254.932 210.282 265.834 182.248 275.959 158.109 262.722 130.851 247.143 109.829 221.445 74.788 188.739 44.418 151.361 21.832 133.446 10.93 113.978 1.586 92.951 0.027 -1.272 -4.644 -6.726 152.658 5.735 214.177 18.973 278.036 50.901 337.216 88.279 390.948 176.276 518.66 296.978 626.903 443.379 678.299 494.776 696.208 550.063 707.11 603.018 694.655 629.493 688.424 654.415 676.746 673.1 656.496 691.791 637.028 701.912 608.993 697.239 582.518 692.568 555.26 673.876 533.457 655.191 513.989 627.933 485.955 597.564 461.038 564.857 439.228 558.627 435.333 552.396 431.439 545.389 430.662 537.599 429.885 530.592 433.774 523.585 437.669 504.116 448.571 486.207 461.808 470.634 476.606 463.627 483.613 455.837 490.62 446.495 492.179 445.718 492.961 444.936 493.738 444.159 493.738 Z" fill="#000000" fill-opacity="1" stroke="none"/>
 </g>
</svg>
