<?xml version="1.0" encoding="UTF-8"?>
<svg width="700pt" height="700pt" version="1.1" viewBox="0 0 700 700" xmlns="http://www.w3.org/2000/svg">
 <path d="m530.25 374.5-136.5-238c-10.5-15.75-26.25-24.5-43.75-24.5s-33.25 8.75-43.75 24.5l-136.5 238c-8.75 15.75-8.75 35 0 49 8.75 15.75 24.5 24.5 43.75 24.5h274.75c17.5 0 33.25-8.75 43.75-24.5 7-15.75 7-35-1.75-49zm-189-183.75c0-5.25 3.5-8.75 8.75-8.75s8.75 3.5 8.75 8.75v141.75c0 5.25-3.5 8.75-8.75 8.75s-8.75-3.5-8.75-8.75zm8.75 208.25c-7 0-14-5.25-14-14s5.25-14 14-14 14 5.25 14 14-7 14-14 14z"/>
</svg>
